#N canvas 0 23 1920 1035 10;
#X obj 147 245 t b b;
#X msg 163 312 set 1;
#X obj 62 222 r noiseline;
#X obj 85 362 pack 0 f;
#X obj 171 166 sel 1;
#X obj 85 403 line;
#X obj 85 424 sig~;
#X obj 70 536 *~;
#X obj 14 418 noise~;
#X obj 14 439 lop~ 1000;
#X obj 70 557 *~;
#X obj 171 40 inlet;
#X obj 28 284 r noiselop;
#X obj 148 483 r noiselvl;
#X obj 70 599 outlet~;
#X obj 387 57 inlet;
#X obj 387 78 / 127;
#X obj 14 460 hip~ 2500;
#X obj 70 578 *~;
#X connect 0 0 3 0;
#X connect 0 1 1 0;
#X connect 1 0 5 0;
#X connect 2 0 3 1;
#X connect 3 0 5 0;
#X connect 4 0 0 0;
#X connect 5 0 6 0;
#X connect 6 0 7 1;
#X connect 7 0 10 0;
#X connect 8 0 9 0;
#X connect 9 0 17 0;
#X connect 10 0 18 0;
#X connect 11 0 4 0;
#X connect 12 0 9 1;
#X connect 13 0 10 1;
#X connect 15 0 16 0;
#X connect 16 0 18 1;
#X connect 17 0 7 0;
#X connect 18 0 14 0;
