#N canvas 27 34 1474 846 12;
#X obj 350 253 noise~;
#X obj 507 140 bng 15 250 50 0 empty empty empty 17 7 0 10 -262144
-1 -1;
#X obj 665 61 tgl 15 0 empty empty empty 17 7 0 10 -262144 -1 -1 0
1;
#X obj 665 81 sel 0 1;
#X obj 665 157 bng 15 250 50 0 empty empty empty 17 7 0 10 -262144
-1 -1;
#X obj 665 402 sig~;
#X msg 582 209 0;
#X obj 665 244 del 5;
#X obj 664 450 expr~ if($v1 > 0 \, 1 \, 0);
#X obj 664 524 outlet~;
#X obj 665 28 inlet;
#X obj 350 343 lop~ 1000;
#X msg 910 268 1 \$1;
#X obj 910 292 -;
#X obj 665 292 spigot;
#X obj 507 332 spigot;
#X msg 507 308 -2;
#X msg 665 268 2;
#X obj 1016 156 inlet;
#X obj 507 283 del 2;
#X obj 664 474 lop~;
#X obj 796 388 r clicklop;
#X obj 664 498 lop~;
#X obj 364 67 loadbang;
#X obj 1111 135 r clicklength;
#X obj 1123 204 r clickminlength;
#X obj 1016 203 + 3;
#X obj 1016 180 / 15;
#X msg 364 91 -2;
#X connect 0 0 11 0;
#X connect 1 0 6 0;
#X connect 1 0 19 0;
#X connect 2 0 3 0;
#X connect 2 0 14 1;
#X connect 2 0 12 0;
#X connect 3 0 1 0;
#X connect 3 1 4 0;
#X connect 4 0 6 0;
#X connect 4 0 7 0;
#X connect 5 0 8 0;
#X connect 6 0 5 0;
#X connect 7 0 17 0;
#X connect 8 0 20 0;
#X connect 10 0 2 0;
#X connect 11 0 8 0;
#X connect 12 0 13 0;
#X connect 13 0 15 1;
#X connect 14 0 5 0;
#X connect 15 0 5 0;
#X connect 16 0 15 0;
#X connect 17 0 14 0;
#X connect 18 0 27 0;
#X connect 19 0 16 0;
#X connect 20 0 22 0;
#X connect 21 0 20 1;
#X connect 21 0 22 1;
#X connect 22 0 9 0;
#X connect 23 0 28 0;
#X connect 24 0 27 1;
#X connect 25 0 26 1;
#X connect 26 0 7 1;
#X connect 27 0 26 0;
#X connect 28 0 5 0;
