#N canvas 616 67 823 695 12;
#X obj 93 149 r~ leak_\$2;
#X obj 125 170 r~ leak_\$3;
#X obj 157 191 r~ leak_\$4;
#X obj 93 72 inlet;
#X obj 93 96 == \$1;
#X obj 93 120 switch~;
#X obj 92 295 outlet~;
#X obj 92 231 +~;
#X obj 266 88 r crosstalk;
#X obj 93 173 *~ 5;
#X obj 92 255 *~;
#X msg 266 112 \$1 50;
#X obj 266 136 line;
#X connect 0 0 9 0;
#X connect 1 0 7 0;
#X connect 2 0 7 0;
#X connect 3 0 4 0;
#X connect 4 0 5 0;
#X connect 7 0 10 0;
#X connect 8 0 11 0;
#X connect 9 0 7 0;
#X connect 10 0 6 0;
#X connect 11 0 12 0;
#X connect 12 0 10 1;
