#N canvas 757 108 980 252 10;
#N canvas 637 242 1172 816 gui 0;
#X obj 100 100 cnv 15 600 220 empty empty empty 20 12 0 14 -86277 -66577
0;
#X obj 105 105 cnv 15 590 210 empty empty empty 20 12 0 14 -86853 -66577
0;
#X obj 110 138 vsl 15 120 8 0 0 1 empty empty empty 0 -9 0 10 -86277
-262130 -1 0 1;
#X floatatom 110 295 3 0 0 0 - - #0-udb16;
#X obj 110 274 int;
#X obj 132 138 vsl 15 120 8 0 0 1 empty empty empty 0 -9 0 10 -86277
-262130 -1 0 1;
#X floatatom 132 295 3 0 0 0 - - #0-udb513;
#X obj 132 274 int;
#X obj 154 138 vsl 15 120 8 0 0 1 empty empty empty 0 -9 0 10 -262130
-86277 -1 0 1;
#X floatatom 154 295 3 0 0 0 - - #0-udb8;
#X obj 154 274 int;
#X obj 176 138 vsl 15 120 8 0 0 1 empty empty empty 0 -9 0 10 -262130
-86277 -1 0 1;
#X floatatom 176 295 3 0 0 0 - - #0-udb4;
#X obj 176 274 int;
#X obj 198 138 vsl 15 120 8 0 0 1 empty empty empty 0 -9 0 10 -33289
-262130 -1 0 1;
#X floatatom 198 295 3 0 0 0 - - #0-udb223;
#X obj 198 274 int;
#X obj 220 138 vsl 15 120 8 0 0 1 empty empty empty 0 -9 0 10 -262130
-86277 -1 0 1;
#X floatatom 220 295 3 0 0 0 - - #0-udb2;
#X obj 220 274 int;
#X obj 242 138 vsl 15 120 8 0 0 1 empty empty empty 0 -9 0 10 -33289
-262130 -1 0 1;
#X floatatom 242 295 3 0 0 0 - - #0-udb135;
#X obj 242 274 int;
#X obj 264 138 vsl 15 120 8 0 0 1 empty empty empty 0 -9 0 10 -33289
-262130 -1 0 1;
#X floatatom 264 295 3 0 0 0 - - #0-udb113;
#X obj 264 274 int;
#X obj 286 138 vsl 15 120 8 0 0 1 empty empty empty 0 -9 0 10 -262130
-86277 -1 0 1;
#X floatatom 286 295 3 0 0 0 - - #0-udb1;
#X obj 286 274 int;
#X obj 492 138 vsl 15 120 8 0 0 1 empty empty empty 0 -9 0 10 -86277
-262130 -1 11900 1;
#X floatatom 492 295 3 0 0 0 - - #0-ldb16;
#X obj 492 274 int;
#X obj 514 138 vsl 15 120 8 0 0 1 empty empty empty 0 -9 0 10 -86277
-262130 -1 11900 1;
#X floatatom 514 295 3 0 0 0 - - #0-ldb513;
#X obj 514 274 int;
#X obj 536 138 vsl 15 120 8 0 0 1 empty empty empty 0 -9 0 10 -262130
-86277 -1 11900 1;
#X floatatom 536 295 3 0 0 0 - - #0-ldb8;
#X obj 536 274 int;
#X obj 558 138 vsl 15 120 8 0 0 1 empty empty empty 0 -9 0 10 -262130
-86277 -1 11900 1;
#X floatatom 558 295 3 0 0 0 - - #0-ldb4;
#X obj 558 274 int;
#X obj 580 138 vsl 15 120 8 0 0 1 empty empty empty 0 -9 0 10 -33289
-262130 -1 11900 1;
#X floatatom 580 295 3 0 0 0 - - #0-ldb223;
#X obj 580 274 int;
#X obj 602 138 vsl 15 120 8 0 0 1 empty empty empty 0 -9 0 10 -262130
-86277 -1 11900 1;
#X floatatom 602 295 3 0 0 0 - - #0-ldb2;
#X obj 602 274 int;
#X obj 624 138 vsl 15 120 8 0 0 1 empty empty empty 0 -9 0 10 -33289
-262130 -1 11900 1;
#X floatatom 624 295 3 0 0 0 - - #0-ldb135;
#X obj 624 274 int;
#X obj 646 138 vsl 15 120 8 0 0 1 empty empty empty 0 -9 0 10 -33289
-262130 -1 11900 1;
#X floatatom 646 295 3 0 0 0 - - #0-ldb113;
#X obj 646 274 int;
#X obj 668 138 vsl 15 120 8 0 0 1 empty empty empty 0 -9 0 10 -262130
-86277 -1 11900 1;
#X floatatom 668 295 3 0 0 0 - - #0-ldb1;
#X obj 668 274 int;
#X obj 321 136 tgl 15 1 percussion_on/off empty Percussion_ON/OFF 17
7 0 10 -262130 -86277 -262130 0 1;
#X obj 321 151 tgl 15 1 percussion_soft/hard empty SOFT/HARD 17 7 0
10 -262130 -86277 -262130 1 1;
#X obj 321 166 tgl 15 1 empty empty FAST/SLOW 17 7 0 10 -262130 -86277
-262130 1 1;
#X obj 321 180 tgl 15 1 empty empty 3RD/2ND 17 7 0 10 -262130 -86277
-262130 0 1;
#X obj 321 300 s percussion;
#X obj 345 218 t b f;
#X obj 353 238 t b f;
#X obj 363 258 t b f;
#X obj 321 279 pack f f f f;
#X obj 110 114 cnv 15 15 15 empty empty Upper 0 7 0 14 -86853 -262130
0;
#X obj 160 114 cnv 15 15 15 empty empty Manual 0 7 0 14 -86853 -262130
0;
#X obj 492 114 cnv 15 15 15 empty empty Lower 0 7 0 14 -86853 -262130
0;
#X obj 542 114 cnv 15 15 15 empty empty Manual 0 7 0 14 -86853 -262130
0;
#X connect 2 0 4 0;
#X connect 4 0 3 0;
#X connect 5 0 7 0;
#X connect 7 0 6 0;
#X connect 8 0 10 0;
#X connect 10 0 9 0;
#X connect 11 0 13 0;
#X connect 13 0 12 0;
#X connect 14 0 16 0;
#X connect 16 0 15 0;
#X connect 17 0 19 0;
#X connect 19 0 18 0;
#X connect 20 0 22 0;
#X connect 22 0 21 0;
#X connect 23 0 25 0;
#X connect 25 0 24 0;
#X connect 26 0 28 0;
#X connect 28 0 27 0;
#X connect 29 0 31 0;
#X connect 31 0 30 0;
#X connect 32 0 34 0;
#X connect 34 0 33 0;
#X connect 35 0 37 0;
#X connect 37 0 36 0;
#X connect 38 0 40 0;
#X connect 40 0 39 0;
#X connect 41 0 43 0;
#X connect 43 0 42 0;
#X connect 44 0 46 0;
#X connect 46 0 45 0;
#X connect 47 0 49 0;
#X connect 49 0 48 0;
#X connect 50 0 52 0;
#X connect 52 0 51 0;
#X connect 53 0 55 0;
#X connect 55 0 54 0;
#X connect 56 0 64 0;
#X connect 57 0 61 0;
#X connect 58 0 62 0;
#X connect 59 0 63 0;
#X connect 61 0 64 0;
#X connect 61 1 64 1;
#X connect 62 0 64 0;
#X connect 62 1 64 2;
#X connect 63 0 64 0;
#X connect 63 1 64 3;
#X connect 64 0 60 0;
#X coords 0 -1 1 1 600 220 2 100 100;
#X restore 2 2 pd gui;
#N canvas 0 23 1920 1035 master 1;
#X obj 232 170 catch~ 16ft;
#X obj 382 170 catch~ 513ft;
#X obj 532 170 catch~ 8ft;
#X obj 682 170 catch~ 4ft;
#X obj 832 170 catch~ 223ft;
#X obj 982 170 catch~ 2ft;
#X obj 1132 170 catch~ 135ft;
#X obj 1282 170 catch~ 113ft;
#X obj 1432 170 catch~ 1ft;
#X obj 102 297 +~;
#X obj 232 281 *~;
#X obj 382 281 *~;
#X obj 532 281 *~;
#X obj 682 281 *~;
#X obj 832 281 *~;
#X obj 982 281 *~;
#X obj 1132 281 *~;
#X obj 1282 281 *~;
#X obj 1432 281 *~;
#X obj 177 495 dbtorms;
#X obj 601 665 vibratoscanner;
#X obj 102 600 *~;
#X obj 162 600 *~;
#X obj 177 516 sig~;
#X obj 276 677 - 100;
#X obj 294 635 - 100;
#X obj 247 258 / 8;
#X obj 397 258 / 8;
#X obj 547 258 / 8;
#X obj 697 258 / 8;
#X obj 847 258 / 8;
#X obj 997 258 / 8;
#X obj 1147 258 / 8;
#X obj 1297 258 / 8;
#X obj 1447 258 / 8;
#X obj 1381 295 *~;
#N canvas 743 62 1076 996 percussion 0;
#X obj 269 141 env~;
#X obj 269 162 > 1;
#X obj 341 449 line~;
#X obj 341 470 dbtorms~;
#X obj 329 235 r percussion;
#X obj 329 256 unpack f f f f;
#X msg 329 284 1 \$1;
#X obj 329 305 -;
#X obj 326 491 *~;
#X obj 356 343 sel 0 1;
#X obj 426 343 sel 0 1;
#X msg 455 364 2500;
#X msg 426 364 500;
#X obj 425 418 pack 0 f;
#X obj 269 183 change;
#X obj 269 244 sel 0 1;
#X obj 269 294 bng 15 250 50 0 empty empty empty 17 7 0 10 -262144
-1 -1;
#X obj 288 294 bng 15 250 50 0 empty empty empty 17 7 0 10 -262144
-1 -1;
#X obj 341 407 f;
#X msg 341 428 \$1;
#X obj 223 394 *~;
#X obj 253 394 *~;
#X obj 314 512 *~;
#X msg 410 277 1 \$1;
#X obj 410 298 -;
#X msg 356 364 109;
#X msg 386 364 118;
#X obj 314 555 outlet~;
#X obj 264 555 outlet;
#X obj 223 77 inlet~;
#X obj 253 98 inlet~;
#X obj 269 120 inlet~;
#X obj 279 209 s keypressed;
#X connect 0 0 1 0;
#X connect 1 0 14 0;
#X connect 2 0 3 0;
#X connect 3 0 8 1;
#X connect 4 0 5 0;
#X connect 5 0 6 0;
#X connect 5 0 22 1;
#X connect 5 1 9 0;
#X connect 5 2 10 0;
#X connect 5 3 23 0;
#X connect 5 3 20 1;
#X connect 6 0 7 0;
#X connect 7 0 28 0;
#X connect 8 0 22 0;
#X connect 9 0 25 0;
#X connect 9 1 26 0;
#X connect 10 0 12 0;
#X connect 10 1 11 0;
#X connect 11 0 13 1;
#X connect 12 0 13 1;
#X connect 13 0 2 0;
#X connect 14 0 15 0;
#X connect 14 0 32 0;
#X connect 15 0 16 0;
#X connect 15 1 17 0;
#X connect 16 0 18 0;
#X connect 17 0 13 0;
#X connect 18 0 19 0;
#X connect 19 0 2 0;
#X connect 20 0 8 0;
#X connect 21 0 8 0;
#X connect 22 0 27 0;
#X connect 23 0 24 0;
#X connect 24 0 21 1;
#X connect 25 0 18 1;
#X connect 26 0 18 1;
#X connect 29 0 20 0;
#X connect 30 0 21 0;
#X connect 31 0 0 0;
#X restore 1396 131 pd percussion;
#X obj 177 474 r \$0-master_s;
#X obj 252 361 *~;
#X obj 402 361 *~;
#X obj 552 361 *~;
#X obj 702 361 *~;
#X obj 852 361 *~;
#X obj 1002 361 *~;
#X obj 1152 361 *~;
#X obj 1302 361 *~;
#X obj 1452 361 *~;
#X obj 267 338 / 8;
#X obj 417 338 / 8;
#X obj 567 338 / 8;
#X obj 717 338 / 8;
#X obj 867 338 / 8;
#X obj 1017 338 / 8;
#X obj 1167 338 / 8;
#X obj 1317 338 / 8;
#X obj 1467 338 / 8;
#X obj 102 377 +~;
#X obj 702 191 s~ 2nd;
#X obj 852 191 s~ 3rd;
#X obj 1447 191 s~ 1st;
#X obj 1433 62 r~ 3rd;
#X obj 1396 41 r~ 2nd;
#X obj 1471 83 r~ 1st;
#X obj 102 147 +~;
#X obj 247 240 r \$0-udb16;
#X obj 397 240 r \$0-udb513;
#X obj 547 240 r \$0-udb8;
#X obj 697 240 r \$0-udb4;
#X obj 847 240 r \$0-udb223;
#X obj 997 240 r \$0-udb2;
#X obj 1147 240 r \$0-udb135;
#X obj 1297 240 r \$0-udb113;
#X obj 1447 240 r \$0-udb1;
#X obj 1467 320 r \$0-ldb1;
#X obj 1317 320 r \$0-ldb113;
#X obj 1167 320 r \$0-ldb135;
#X obj 1017 320 r \$0-ldb2;
#X obj 867 320 r \$0-ldb223;
#X obj 717 320 r \$0-ldb4;
#X obj 567 320 r \$0-ldb8;
#X obj 417 320 r \$0-ldb513;
#X obj 267 320 r \$0-ldb16;
#X obj 250 750 cnv 15 220 220 empty \$0-masterred empty 20 12 0 14
-86277 -66577 0;
#X obj 255 755 cnv 15 210 210 empty \$0-masterbrown empty 20 12 0 14
-86853 -66577 0;
#X obj 277 789 vu 15 120 empty empty -1 -8 0 10 -66577 -1 0 0;
#X obj 295 789 vu 15 120 empty empty -1 -8 0 10 -66577 -1 1 0;
#X obj 260 789 vsl 15 119 0 112 0 1 \$0-master_s empty empty 0 -9 0
10 -262130 -86277 -1 11000 1;
#X obj 360 787 tgl 15 1 foldbackmod empty Foldbackmod 17 7 0 10 -262130
-86277 -262130 0 1;
#N canvas 0 23 1910 1033 ao28 0;
#X msg 44 64 1.92708 -0.929901 0.55599 -1.05722 0.504053;
#X msg 44 120 0.788913 -0.302884 0.709615 -0.366865 0.171221;
#X obj 34 90 biquad~;
#X obj 34 146 biquad~;
#X obj 34 38 inlet~;
#X obj 34 202 outlet~;
#X obj 84 38 loadbang;
#X connect 0 0 2 0;
#X connect 1 0 3 0;
#X connect 2 0 3 0;
#X connect 3 0 5 0;
#X connect 4 0 2 0;
#X connect 6 0 0 0;
#X connect 6 0 1 0;
#X restore 102 493 pd ao28;
#X obj 102 651 *~ 0.125;
#X obj 162 651 *~ 0.125;
#X obj 276 656 env~ 2048;
#X obj 294 614 env~ 2048;
#X obj 232 430 *~;
#X obj 247 409 r~ leakage;
#X obj 232 388 catch~ leakagedsp;
#X text -42 500 dry out;
#X obj 102 446 *~ 0.003;
#X obj 159 451 r od-gain;
#X obj 260 764 cnv 15 15 15 empty empty Mastervolume 0 7 0 14 -86853
-262130 0;
#X floatatom 310 273 5 0 0 0 - - -;
#X obj 1036 792 s pd-master;
#X msg 1036 771 donecanvasdialog 1 -1 1 0 -1 1 1 400 220 250 750;
#X msg 1055 871 donecanvasdialog 1 -1 1 0 -1 1 1 400 440 250 750;
#X msg 1286 739 \; \$1-masterbrown vis_size 390 210;
#X msg 1305 839 \; \$1-masterbrown vis_size 390 430;
#X obj 1046 713 f \$0;
#X obj 1065 813 f \$0;
#X msg 1046 739 \; \$1-masterred vis_size 400 220;
#X msg 1065 839 \; \$1-masterred vis_size 400 440;
#X obj 1036 649 tgl 15 0 empty empty Advanced_Settings 17 7 0 10 -262130
-86277 -262130 0 1;
#X obj 1036 669 sel 0 1;
#X obj 1055 892 s pd-master;
#X obj 102 514 s~ ao28-out;
#X obj 102 554 r~ rotaryout-l;
#X obj 162 574 r~ rotaryout-r;
#X obj 102 693 dac~ 1 2;
#X obj 102 672 hip~ 10;
#X obj 162 672 hip~ 10;
#X connect 0 0 10 0;
#X connect 0 0 38 0;
#X connect 1 0 11 0;
#X connect 1 0 39 0;
#X connect 2 0 12 0;
#X connect 2 0 40 0;
#X connect 3 0 13 0;
#X connect 3 0 41 0;
#X connect 3 0 57 0;
#X connect 4 0 14 0;
#X connect 4 0 42 0;
#X connect 4 0 58 0;
#X connect 5 0 15 0;
#X connect 5 0 43 0;
#X connect 6 0 16 0;
#X connect 6 0 44 0;
#X connect 7 0 17 0;
#X connect 7 0 45 0;
#X connect 8 0 18 0;
#X connect 8 0 46 0;
#X connect 8 0 59 0;
#X connect 9 0 56 0;
#X connect 10 0 9 0;
#X connect 11 0 9 0;
#X connect 12 0 9 0;
#X connect 13 0 9 0;
#X connect 14 0 9 0;
#X connect 15 0 9 0;
#X connect 16 0 9 0;
#X connect 17 0 9 0;
#X connect 18 0 35 0;
#X connect 19 0 23 0;
#X connect 21 0 89 0;
#X connect 21 0 91 0;
#X connect 22 0 90 0;
#X connect 22 0 92 0;
#X connect 23 0 22 1;
#X connect 23 0 21 1;
#X connect 24 0 84 0;
#X connect 25 0 85 0;
#X connect 26 0 10 1;
#X connect 26 0 100 0;
#X connect 27 0 11 1;
#X connect 28 0 12 1;
#X connect 29 0 13 1;
#X connect 30 0 14 1;
#X connect 31 0 15 1;
#X connect 32 0 16 1;
#X connect 33 0 17 1;
#X connect 34 0 18 1;
#X connect 35 0 9 0;
#X connect 36 0 35 1;
#X connect 36 1 63 0;
#X connect 37 0 19 0;
#X connect 38 0 56 0;
#X connect 39 0 56 0;
#X connect 40 0 56 0;
#X connect 41 0 56 0;
#X connect 42 0 56 0;
#X connect 43 0 56 0;
#X connect 44 0 56 0;
#X connect 45 0 56 0;
#X connect 46 0 56 0;
#X connect 47 0 38 1;
#X connect 48 0 39 1;
#X connect 49 0 40 1;
#X connect 50 0 41 1;
#X connect 51 0 42 1;
#X connect 52 0 43 1;
#X connect 53 0 44 1;
#X connect 54 0 45 1;
#X connect 55 0 46 1;
#X connect 56 0 97 0;
#X connect 60 0 36 1;
#X connect 61 0 36 0;
#X connect 62 0 36 2;
#X connect 63 0 9 0;
#X connect 64 0 26 0;
#X connect 65 0 27 0;
#X connect 66 0 28 0;
#X connect 67 0 29 0;
#X connect 68 0 30 0;
#X connect 69 0 31 0;
#X connect 70 0 32 0;
#X connect 71 0 33 0;
#X connect 72 0 34 0;
#X connect 73 0 55 0;
#X connect 74 0 54 0;
#X connect 75 0 53 0;
#X connect 76 0 52 0;
#X connect 77 0 51 0;
#X connect 78 0 50 0;
#X connect 79 0 49 0;
#X connect 80 0 48 0;
#X connect 81 0 47 0;
#X connect 88 0 113 0;
#X connect 89 0 117 0;
#X connect 90 0 118 0;
#X connect 91 0 24 0;
#X connect 92 0 25 0;
#X connect 93 0 97 0;
#X connect 94 0 93 1;
#X connect 95 0 93 0;
#X connect 97 0 88 0;
#X connect 102 0 101 0;
#X connect 103 0 112 0;
#X connect 106 0 108 0;
#X connect 106 0 104 0;
#X connect 107 0 109 0;
#X connect 107 0 105 0;
#X connect 110 0 111 0;
#X connect 111 0 102 0;
#X connect 111 0 106 0;
#X connect 111 1 107 0;
#X connect 111 1 103 0;
#X connect 114 0 21 0;
#X connect 115 0 22 0;
#X connect 117 0 116 0;
#X connect 118 0 116 1;
#X coords 0 -1 1 1 220 220 1 250 750;
#X restore 757 2 pd master;
#X obj 598 2 rotarysine;
#N canvas 270 50 1526 975 guts 0;
#N canvas 685 135 1015 826 tgvol 0;
#N canvas 0 23 591 278 (subpatch) 0;
#X array array1 91 float 3;
#A 0 68 67 66 65 63 62 62 60 60 59 59 58 15.6 15.6 15 14.7 14.1 13.6
13.3 13 12.7 12.2 12 11.33 11 11 11 11 11 11 11 11 11 11 11 10.2 10.7
9.7 10.5 9.9 11.4 11.2 11.8 10.4 11.4 11.6 11.5 12.8 11.57 11.16 11.13
12.91 11.1 11.17 10.76 11.83 13.22 11.6 11.57 12.36 14.03 12.11 13.88
14.35 15.92 16.2 14.17 14.74 17.21 16.1 17.08 15.26 17.64 16.64 17.84
15.6 12.9 13.9 17.65 16.4 16.24 17.64 15.64 17.44 15.78 15.32 14.62
16 15.94 12.88 12.62;
#X coords 0 100 91 0 200 140 1 0 0;
#X restore 559 205 graph;
#X obj 299 168 tabread array1;
#X obj 349 89 until;
#X obj 349 117 f;
#X obj 387 117 + 1;
#X obj 432 116 sel 0;
#X obj 387 143 mod 91;
#X obj 299 204 pack f f;
#X obj 349 138 + 1;
#X obj 299 225 t a a;
#X obj 299 267 s;
#X msg 299 246 \$2;
#X msg 336 246 symbol vol_tg\$1;
#X msg 559 111 \; array1 read tgvols;
#X obj 532 11 inlet;
#X obj 532 32 t b b;
#X obj 346 33 bng 15 250 50 0 empty empty empty 17 7 0 10 -262144 -1
-1;
#X msg 559 148 \; array1 const 15;
#X connect 1 0 7 1;
#X connect 2 0 3 0;
#X connect 3 0 4 0;
#X connect 3 0 1 0;
#X connect 3 0 8 0;
#X connect 4 0 6 0;
#X connect 5 0 2 1;
#X connect 6 0 3 1;
#X connect 6 0 5 0;
#X connect 7 0 9 0;
#X connect 8 0 7 0;
#X connect 9 0 11 0;
#X connect 9 1 12 0;
#X connect 11 0 10 0;
#X connect 12 0 10 1;
#X connect 14 0 15 0;
#X connect 15 0 2 0;
#X connect 15 1 13 0;
#X connect 16 0 2 0;
#X restore 936 295 pd tgvol;
#N canvas 0 23 906 692 tapering 0;
#X obj 104 389 textfile;
#X msg 124 183 rewind;
#X msg 104 156 read tapering;
#X obj 104 429 unpack f f f f f f f f f;
#X msg 146 214 bang;
#X obj 146 272 until;
#X obj 146 300 f;
#X obj 184 300 + 1;
#X obj 229 299 sel 0;
#X obj 184 366 mod 61;
#X obj 146 366 b;
#X obj 378 37 bng 15 250 50 0 empty empty empty 17 7 0 10 -262144 -1
-1;
#X obj 378 86 t b b b;
#X obj 330 397 + 35;
#X msg 330 418 symbol tap_\$1_16;
#X obj 104 588 s;
#X obj 134 588 s;
#X obj 164 588 s;
#X obj 194 588 s;
#X obj 224 588 s;
#X obj 254 588 s;
#X obj 284 588 s;
#X obj 314 588 s;
#X obj 344 588 s;
#X msg 340 438 symbol tap_\$1_513;
#X msg 350 458 symbol tap_\$1_8;
#X msg 360 478 symbol tap_\$1_4;
#X msg 370 498 symbol tap_\$1_223;
#X msg 380 518 symbol tap_\$1_2;
#X msg 390 538 symbol tap_\$1_135;
#X msg 410 578 symbol tap_\$1_1;
#X msg 400 558 symbol tap_\$1_113;
#X obj 184 321 t f f;
#X obj 378 4 inlet;
#X msg 104 130 read tapering2;
#X obj 417 107 f;
#X obj 417 128 sel 0 1;
#X floatatom 434 63 5 0 0 0 - - -;
#X connect 0 0 3 0;
#X connect 1 0 0 0;
#X connect 2 0 0 0;
#X connect 3 0 15 0;
#X connect 3 1 16 0;
#X connect 3 2 17 0;
#X connect 3 3 18 0;
#X connect 3 4 19 0;
#X connect 3 5 20 0;
#X connect 3 6 21 0;
#X connect 3 7 22 0;
#X connect 3 8 23 0;
#X connect 4 0 5 0;
#X connect 5 0 6 0;
#X connect 6 0 7 0;
#X connect 7 0 32 0;
#X connect 8 0 5 1;
#X connect 9 0 6 1;
#X connect 9 0 8 0;
#X connect 10 0 0 0;
#X connect 11 0 12 0;
#X connect 12 0 4 0;
#X connect 12 1 1 0;
#X connect 12 2 35 0;
#X connect 13 0 14 0;
#X connect 13 0 24 0;
#X connect 13 0 31 0;
#X connect 13 0 30 0;
#X connect 13 0 29 0;
#X connect 13 0 28 0;
#X connect 13 0 27 0;
#X connect 13 0 26 0;
#X connect 13 0 25 0;
#X connect 14 0 15 1;
#X connect 24 0 16 1;
#X connect 25 0 17 1;
#X connect 26 0 18 1;
#X connect 27 0 19 1;
#X connect 28 0 20 1;
#X connect 29 0 21 1;
#X connect 30 0 23 1;
#X connect 31 0 22 1;
#X connect 32 0 10 0;
#X connect 32 1 9 0;
#X connect 32 1 13 0;
#X connect 33 0 11 0;
#X connect 34 0 0 0;
#X connect 35 0 36 0;
#X connect 36 0 2 0;
#X connect 36 1 34 0;
#X connect 37 0 35 1;
#X restore 998 295 pd tapering;
#X obj 904 48 bng 15 250 50 0 empty empty empty 17 7 0 10 -262144 -1
-1;
#X obj 750 98 vsl 15 128 0 10 0 0 empty empty empty 0 -9 0 10 -262144
-1 -1 6350 1;
#X floatatom 750 234 5 0 0 0 - - -;
#X obj 750 295 s noiseline;
#X obj 830 98 vsl 15 128 1.27 20000 1 0 empty empty empty 0 -9 0 10
-262144 -1 -1 10585 1;
#X floatatom 830 234 5 0 0 0 - - -;
#X obj 830 295 s noiselop;
#X obj 670 98 vsl 15 128 0 200 0 0 empty empty empty 0 -9 0 10 -262144
-1 -1 1270 1;
#X floatatom 670 234 5 0 0 0 - - -;
#X obj 670 295 s noiselvl;
#X obj 670 34 loadbang;
#X msg 830 80 4000;
#X obj 904 295 tg2;
#X obj 475 588 vsl 15 128 0.0001 0.1 1 1 leakage empty empty 0 -9 0
10 -262144 -1 -1 0 1;
#X floatatom 474 724 6 0 0 0 - - -;
#X obj 474 804 sig~;
#X obj 474 825 s~ leakage;
#X obj 404 588 vsl 15 128 0.1 10 1 1 leakage empty empty 0 -9 0 10
-262144 -1 -1 8300 1;
#X floatatom 404 724 5 0 0 0 - - -;
#X obj 404 744 s bpq;
#X obj 75 356 clone -s 36 matrix 61;
#X obj 544 588 vsl 15 128 0.01 1 1 1 leakage empty empty 0 -9 0 10
-262144 -1 -1 0 1;
#X floatatom 544 724 5 0 0 0 - - -;
#X obj 544 804 sig~;
#X obj 396 342 vsl 15 128 0.25 4 1 1 empty empty Filter_Age 0 -9 0
10 -262144 -1 -1 6354 1;
#X floatatom 396 478 5 0 0 0 - - -;
#X obj 544 825 s~ crosstalk;
#X floatatom 491 776 6 0 0 0 - - -;
#X obj 474 744 expr if($f1 == 0.0001 \, 0 \, $f1);
#X msg 750 80 5;
#X msg 670 80 20;
#X obj 396 498 s filterage;
#X connect 2 0 1 0;
#X connect 2 0 0 0;
#X connect 2 0 15 0;
#X connect 2 0 13 0;
#X connect 2 0 32 0;
#X connect 2 0 31 0;
#X connect 2 0 19 0;
#X connect 2 0 23 0;
#X connect 2 0 26 0;
#X connect 2 0 14 0;
#X connect 3 0 4 0;
#X connect 4 0 5 0;
#X connect 6 0 7 0;
#X connect 7 0 8 0;
#X connect 9 0 10 0;
#X connect 10 0 11 0;
#X connect 12 0 32 0;
#X connect 12 0 13 0;
#X connect 12 0 31 0;
#X connect 12 0 2 0;
#X connect 13 0 6 0;
#X connect 15 0 16 0;
#X connect 16 0 30 0;
#X connect 17 0 18 0;
#X connect 19 0 20 0;
#X connect 20 0 21 0;
#X connect 23 0 24 0;
#X connect 24 0 25 0;
#X connect 25 0 28 0;
#X connect 26 0 27 0;
#X connect 27 0 33 0;
#X connect 30 0 17 0;
#X connect 30 0 29 0;
#X connect 31 0 3 0;
#X connect 32 0 9 0;
#X restore 2 232 pd guts;
