#N canvas 132 52 1669 979 10;
#X obj 1097 82 f;
#X obj 1097 61 sel 1;
#X obj 1097 103 > 0;
#X obj 1097 125 tgl 15 0 empty empty empty 17 7 0 10 -262144 -1 -1
0 1;
#X obj 1097 19 notein;
#X obj 136 251 - 12;
#X obj 411 118 t b f;
#X obj 236 401 + 7;
#X obj 436 401 + 12;
#X obj 536 381 + 19;
#X obj 636 381 + 24;
#X obj 736 381 + 28;
#X obj 836 381 + 31;
#X obj 411 67 f \$1;
#X obj 411 46 loadbang;
#X obj 1097 40 == \$1;
#X obj 936 381 + 36;
#X obj 136 645 *~;
#X floatatom 136 402 5 0 0 0 - - -;
#X msg 136 422 set note_\$1;
#X obj 136 443 r~;
#X obj 136 726 throw~ 16ft;
#X obj 236 645 *~;
#X floatatom 236 422 5 0 0 0 - - -;
#X msg 236 442 set note_\$1;
#X obj 236 463 r~;
#X obj 336 645 *~;
#X floatatom 336 422 5 0 0 0 - - -;
#X msg 336 442 set note_\$1;
#X obj 336 463 r~;
#X obj 436 645 *~;
#X floatatom 436 422 5 0 0 0 - - -;
#X msg 436 442 set note_\$1;
#X obj 436 463 r~;
#X obj 536 645 *~;
#X floatatom 536 422 5 0 0 0 - - -;
#X msg 536 442 set note_\$1;
#X obj 536 463 r~;
#X obj 636 645 *~;
#X floatatom 636 422 5 0 0 0 - - -;
#X msg 636 442 set note_\$1;
#X obj 636 463 r~;
#X obj 736 645 *~;
#X floatatom 736 422 5 0 0 0 - - -;
#X msg 736 442 set note_\$1;
#X obj 736 463 r~;
#X obj 836 645 *~;
#X floatatom 836 422 5 0 0 0 - - -;
#X msg 836 442 set note_\$1;
#X obj 836 463 r~;
#X obj 936 645 *~;
#X floatatom 936 422 5 0 0 0 - - -;
#X msg 936 442 set note_\$1;
#X obj 936 463 r~;
#X obj 236 726 throw~ 513ft;
#X obj 336 726 throw~ 8ft;
#X obj 436 726 throw~ 4ft;
#X obj 536 726 throw~ 223ft;
#X obj 636 726 throw~ 2ft;
#X obj 736 726 throw~ 135ft;
#X obj 836 726 throw~ 113ft;
#X obj 936 726 throw~ 1ft;
#X obj 936 614 *~;
#X obj 951 493 r tap_\$1_1;
#X obj 836 614 *~;
#X obj 736 614 *~;
#X obj 636 614 *~;
#X obj 536 614 *~;
#X obj 436 614 *~;
#X obj 336 614 *~;
#X obj 236 614 *~;
#X obj 136 614 *~;
#X obj 151 493 r tap_\$1_16;
#X obj 251 493 r tap_\$1_513;
#X obj 351 493 r tap_\$1_8;
#X obj 451 493 r tap_\$1_4;
#X obj 551 493 r tap_\$1_223;
#X obj 651 493 r tap_\$1_2;
#X obj 751 493 r tap_\$1_135;
#X obj 951 514 + 100;
#X obj 951 535 dbtorms;
#X obj 851 514 + 100;
#X obj 851 535 dbtorms;
#X obj 751 514 + 100;
#X obj 751 535 dbtorms;
#X obj 651 514 + 100;
#X obj 651 535 dbtorms;
#X obj 551 514 + 100;
#X obj 551 535 dbtorms;
#X obj 451 514 + 100;
#X obj 451 535 dbtorms;
#X obj 351 514 + 100;
#X obj 351 535 dbtorms;
#X obj 251 514 + 100;
#X obj 251 535 dbtorms;
#X obj 151 514 + 100;
#X obj 151 535 dbtorms;
#X obj 411 88 - 23;
#N canvas 0 23 1303 815 <91 0;
#X obj 95 95 expr if($i1 > 91 \, $i1 - 12 \, $i1);
#X obj 95 116 expr if($i1 > 91 \, $i1 - 12 \, $i1);
#X obj 95 137 expr if($i1 > 91 \, $i1 - 12 \, $i1);
#X obj 95 158 expr if($i1 > 91 \, $i1 - 12 \, $i1);
#X obj 95 179 expr if($i1 > 91 \, $i1 - 12 \, $i1);
#X obj 95 200 outlet;
#X obj 95 74 inlet;
#X connect 0 0 1 0;
#X connect 1 0 2 0;
#X connect 2 0 3 0;
#X connect 3 0 4 0;
#X connect 4 0 5 0;
#X connect 6 0 0 0;
#X restore 936 402 pd <91;
#N canvas 0 23 1303 815 <91 0;
#X obj 95 95 expr if($i1 > 91 \, $i1 - 12 \, $i1);
#X obj 95 116 expr if($i1 > 91 \, $i1 - 12 \, $i1);
#X obj 95 137 expr if($i1 > 91 \, $i1 - 12 \, $i1);
#X obj 95 158 expr if($i1 > 91 \, $i1 - 12 \, $i1);
#X obj 95 179 expr if($i1 > 91 \, $i1 - 12 \, $i1);
#X obj 95 200 outlet;
#X obj 95 74 inlet;
#X connect 0 0 1 0;
#X connect 1 0 2 0;
#X connect 2 0 3 0;
#X connect 3 0 4 0;
#X connect 4 0 5 0;
#X connect 6 0 0 0;
#X restore 836 402 pd <91;
#N canvas 0 23 1303 815 <91 0;
#X obj 95 95 expr if($i1 > 91 \, $i1 - 12 \, $i1);
#X obj 95 116 expr if($i1 > 91 \, $i1 - 12 \, $i1);
#X obj 95 137 expr if($i1 > 91 \, $i1 - 12 \, $i1);
#X obj 95 158 expr if($i1 > 91 \, $i1 - 12 \, $i1);
#X obj 95 179 expr if($i1 > 91 \, $i1 - 12 \, $i1);
#X obj 95 200 outlet;
#X obj 95 74 inlet;
#X connect 0 0 1 0;
#X connect 1 0 2 0;
#X connect 2 0 3 0;
#X connect 3 0 4 0;
#X connect 4 0 5 0;
#X connect 6 0 0 0;
#X restore 736 402 pd <91;
#N canvas 0 23 1303 815 <91 0;
#X obj 95 95 expr if($i1 > 91 \, $i1 - 12 \, $i1);
#X obj 95 116 expr if($i1 > 91 \, $i1 - 12 \, $i1);
#X obj 95 137 expr if($i1 > 91 \, $i1 - 12 \, $i1);
#X obj 95 158 expr if($i1 > 91 \, $i1 - 12 \, $i1);
#X obj 95 179 expr if($i1 > 91 \, $i1 - 12 \, $i1);
#X obj 95 200 outlet;
#X obj 95 74 inlet;
#X connect 0 0 1 0;
#X connect 1 0 2 0;
#X connect 2 0 3 0;
#X connect 3 0 4 0;
#X connect 4 0 5 0;
#X connect 6 0 0 0;
#X restore 636 402 pd <91;
#N canvas 0 23 1303 815 <91 0;
#X obj 95 95 expr if($i1 > 91 \, $i1 - 12 \, $i1);
#X obj 95 116 expr if($i1 > 91 \, $i1 - 12 \, $i1);
#X obj 95 137 expr if($i1 > 91 \, $i1 - 12 \, $i1);
#X obj 95 158 expr if($i1 > 91 \, $i1 - 12 \, $i1);
#X obj 95 179 expr if($i1 > 91 \, $i1 - 12 \, $i1);
#X obj 95 200 outlet;
#X obj 95 74 inlet;
#X connect 0 0 1 0;
#X connect 1 0 2 0;
#X connect 2 0 3 0;
#X connect 3 0 4 0;
#X connect 4 0 5 0;
#X connect 6 0 0 0;
#X restore 536 402 pd <91;
#X floatatom 201 514 5 0 0 0 - - -;
#X floatatom 301 514 5 0 0 0 - - -;
#X floatatom 401 514 5 0 0 0 - - -;
#X floatatom 501 514 5 0 0 0 - - -;
#X floatatom 601 514 5 0 0 0 - - -;
#X floatatom 701 514 5 0 0 0 - - -;
#X floatatom 801 514 5 0 0 0 - - -;
#X floatatom 901 514 5 0 0 0 - - -;
#X floatatom 1001 514 5 0 0 0 - - -;
#X obj 851 493 r tap_\$1_113;
#X obj 1097 145 s keyon;
#X obj 146 580 keyclick2;
#X obj 246 580 keyclick2;
#X obj 346 580 keyclick2;
#X obj 446 580 keyclick2;
#X obj 546 580 keyclick2;
#X obj 646 580 keyclick2;
#X obj 746 580 keyclick2;
#X obj 846 580 keyclick2;
#X obj 946 580 keyclick2;
#X floatatom 1150 112 5 0 0 0 - - -;
#X obj 290 36 inlet;
#X obj 1174 308 switch~;
#X obj 1158 631 line~;
#X obj 1158 565 sel 0 1;
#X obj 1189 223 sel 0 1;
#X msg 1228 244 1;
#X msg 1174 277 0;
#X obj 100 144 r foldbackmod;
#X obj 1174 244 del 5;
#X msg 1158 605 0 1;
#X msg 1201 604 1 1;
#X obj 136 372 expr if($i1 < 13 \, $i1 + 12 \, $i1);
#X floatatom 36 402 5 0 0 0 - - -;
#X msg 36 422 set note_\$1;
#X obj 36 443 r~;
#X msg 100 165 \$1 50;
#X obj 100 186 line~;
#X obj 85 207 -~;
#X msg 85 102 1;
#X obj 85 123 sig~;
#X obj 85 81 loadbang;
#X obj 136 464 *~;
#X obj 36 464 *~;
#X connect 0 0 2 0;
#X connect 0 0 123 0;
#X connect 1 0 0 0;
#X connect 2 0 3 0;
#X connect 3 0 113 0;
#X connect 3 0 122 0;
#X connect 3 0 121 0;
#X connect 3 0 120 0;
#X connect 3 0 119 0;
#X connect 3 0 118 0;
#X connect 3 0 117 0;
#X connect 3 0 116 0;
#X connect 3 0 115 0;
#X connect 3 0 114 0;
#X connect 3 0 127 0;
#X connect 3 0 128 0;
#X connect 4 0 15 0;
#X connect 4 1 0 1;
#X connect 5 0 135 0;
#X connect 5 0 136 0;
#X connect 6 1 5 0;
#X connect 6 1 8 0;
#X connect 6 1 7 0;
#X connect 6 1 27 0;
#X connect 6 1 9 0;
#X connect 6 1 16 0;
#X connect 6 1 12 0;
#X connect 6 1 11 0;
#X connect 6 1 10 0;
#X connect 7 0 23 0;
#X connect 8 0 31 0;
#X connect 9 0 102 0;
#X connect 10 0 101 0;
#X connect 11 0 100 0;
#X connect 12 0 99 0;
#X connect 13 0 97 0;
#X connect 14 0 13 0;
#X connect 15 0 1 0;
#X connect 16 0 98 0;
#X connect 17 0 21 0;
#X connect 18 0 19 0;
#X connect 19 0 20 0;
#X connect 20 0 145 0;
#X connect 22 0 54 0;
#X connect 23 0 24 0;
#X connect 24 0 25 0;
#X connect 25 0 70 0;
#X connect 26 0 55 0;
#X connect 27 0 28 0;
#X connect 28 0 29 0;
#X connect 29 0 69 0;
#X connect 30 0 56 0;
#X connect 31 0 32 0;
#X connect 32 0 33 0;
#X connect 33 0 68 0;
#X connect 34 0 57 0;
#X connect 35 0 36 0;
#X connect 36 0 37 0;
#X connect 37 0 67 0;
#X connect 38 0 58 0;
#X connect 39 0 40 0;
#X connect 40 0 41 0;
#X connect 41 0 66 0;
#X connect 42 0 59 0;
#X connect 43 0 44 0;
#X connect 44 0 45 0;
#X connect 45 0 65 0;
#X connect 46 0 60 0;
#X connect 47 0 48 0;
#X connect 48 0 49 0;
#X connect 49 0 64 0;
#X connect 50 0 61 0;
#X connect 51 0 52 0;
#X connect 52 0 53 0;
#X connect 53 0 62 0;
#X connect 62 0 50 0;
#X connect 63 0 79 0;
#X connect 63 0 111 0;
#X connect 64 0 46 0;
#X connect 65 0 42 0;
#X connect 66 0 38 0;
#X connect 67 0 34 0;
#X connect 68 0 30 0;
#X connect 69 0 26 0;
#X connect 70 0 22 0;
#X connect 71 0 17 0;
#X connect 72 0 103 0;
#X connect 72 0 95 0;
#X connect 73 0 93 0;
#X connect 73 0 104 0;
#X connect 74 0 91 0;
#X connect 74 0 105 0;
#X connect 75 0 89 0;
#X connect 75 0 106 0;
#X connect 76 0 87 0;
#X connect 76 0 107 0;
#X connect 77 0 85 0;
#X connect 77 0 108 0;
#X connect 78 0 83 0;
#X connect 78 0 109 0;
#X connect 79 0 80 0;
#X connect 80 0 62 1;
#X connect 81 0 82 0;
#X connect 82 0 64 1;
#X connect 83 0 84 0;
#X connect 84 0 65 1;
#X connect 85 0 86 0;
#X connect 86 0 66 1;
#X connect 87 0 88 0;
#X connect 88 0 67 1;
#X connect 89 0 90 0;
#X connect 90 0 68 1;
#X connect 91 0 92 0;
#X connect 92 0 69 1;
#X connect 93 0 94 0;
#X connect 94 0 70 1;
#X connect 95 0 96 0;
#X connect 96 0 71 1;
#X connect 97 0 6 0;
#X connect 98 0 51 0;
#X connect 99 0 47 0;
#X connect 100 0 43 0;
#X connect 101 0 39 0;
#X connect 102 0 35 0;
#X connect 112 0 81 0;
#X connect 112 0 110 0;
#X connect 114 0 71 0;
#X connect 115 0 70 0;
#X connect 116 0 69 0;
#X connect 117 0 68 0;
#X connect 118 0 67 0;
#X connect 119 0 66 0;
#X connect 120 0 65 0;
#X connect 121 0 64 0;
#X connect 122 0 62 0;
#X connect 123 0 122 1;
#X connect 123 0 121 1;
#X connect 123 0 120 1;
#X connect 123 0 119 1;
#X connect 123 0 118 1;
#X connect 123 0 117 1;
#X connect 123 0 116 1;
#X connect 123 0 115 1;
#X connect 123 0 114 1;
#X connect 126 0 50 1;
#X connect 126 0 46 1;
#X connect 126 0 42 1;
#X connect 126 0 38 1;
#X connect 126 0 34 1;
#X connect 126 0 30 1;
#X connect 126 0 26 1;
#X connect 126 0 22 1;
#X connect 126 0 17 1;
#X connect 127 0 133 0;
#X connect 127 1 134 0;
#X connect 128 0 132 0;
#X connect 128 1 129 0;
#X connect 129 0 125 0;
#X connect 130 0 125 0;
#X connect 131 0 139 0;
#X connect 132 0 130 0;
#X connect 133 0 126 0;
#X connect 134 0 126 0;
#X connect 135 0 18 0;
#X connect 136 0 137 0;
#X connect 137 0 138 0;
#X connect 138 0 146 0;
#X connect 139 0 140 0;
#X connect 140 0 141 1;
#X connect 140 0 146 1;
#X connect 141 0 145 1;
#X connect 142 0 143 0;
#X connect 143 0 141 0;
#X connect 144 0 142 0;
#X connect 145 0 71 0;
#X connect 146 0 71 0;
