#N canvas 147 22 1133 756 10;
#X obj 23 88 inlet;
#X obj 37 446 - \$3;
#X obj 22 467 *;
#X obj 22 364 /;
#X obj 22 488 + \$3;
#X obj 22 641 outlet;
#X obj 37 425 f \$4;
#X obj 435 108 loadbang;
#X text 25 10 creation arguments: input min \, max \, output min \,
max \, deadzone, f 62;
#X obj 84 212 f \$2;
#X obj 98 118 \$1;
#X obj 23 228 -;
#X obj 84 275 - \$1;
#X text 120 249 replace with \$5 for dynamic deadzone;
#X text 117 232 replace with \$5 for dynamic deadzone;
#X text 126 140 replace with \$5 for dynamic deadzone;
#X obj 98 139 + \$5;
#X obj 84 233 - \$5;
#X obj 84 254 - \$5;
#X obj 22 589 min \$4;
#X obj 22 610 max \$3;
#X obj 92 589 max \$4;
#X obj 92 610 min \$3;
#X obj 184 360 f \$3;
#X obj 241 359 f \$4;
#X obj 184 472 select 1 2;
#X obj 151 524 spigot;
#X obj 201 524 spigot;
#X obj 184 504 tgl 15 0 empty empty empty 17 7 0 10 -262144 -1 -1 1
1;
#X obj 234 504 tgl 15 0 empty empty empty 17 7 0 10 -262144 -1 -1 1
1;
#X obj 184 417 expr if($f1 < $f2 \, 1 \, 2);
#X floatatom 184 438 5 0 0 0 - - -;
#X obj 219 317 t b b;
#X connect 0 0 11 0;
#X connect 1 0 2 1;
#X connect 2 0 4 0;
#X connect 3 0 2 0;
#X connect 4 0 26 0;
#X connect 4 0 27 0;
#X connect 6 0 1 0;
#X connect 7 0 9 0;
#X connect 7 0 6 0;
#X connect 7 0 10 0;
#X connect 7 0 32 0;
#X connect 9 0 17 0;
#X connect 10 0 16 0;
#X connect 11 0 3 0;
#X connect 12 0 3 1;
#X connect 16 0 11 1;
#X connect 17 0 18 0;
#X connect 18 0 12 0;
#X connect 19 0 20 0;
#X connect 20 0 5 0;
#X connect 21 0 22 0;
#X connect 22 0 5 0;
#X connect 23 0 30 0;
#X connect 24 0 30 1;
#X connect 25 0 28 0;
#X connect 25 1 29 0;
#X connect 26 0 19 0;
#X connect 27 0 21 0;
#X connect 28 0 26 1;
#X connect 29 0 27 1;
#X connect 30 0 31 0;
#X connect 31 0 25 0;
#X connect 32 0 23 0;
#X connect 32 1 24 0;
