#N canvas 0 154 1907 834 10;
#X obj 248 605 *~ 1;
#X obj 248 767 s~ note_\$1;
#X obj 293 239 loadbang;
#X obj 293 261 f \$1;
#X obj 293 282 - 1;
#X obj 293 303 div 12;
#X obj 365 333 mod 12;
#X msg 293 418 set oct\$1;
#X obj 248 448 tabosc4~;
#X obj 306 376 pow;
#X msg 306 355 2 \$1;
#X obj 306 334 + 1;
#X obj 269 584 r vol_tg\$1;
#X obj 194 22 inlet;
#X obj 397 677 throw~ leakagedsp;
#X obj 248 22 r motor_speed_flutter;
#X obj 248 397 expr $f1 * $f2 * $f3;
#N canvas 406 66 1484 845 ratio 0;
#X obj 166 153 expr float(85)/float(104);
#X obj 180 243 expr float(71)/float(82);
#X obj 322 583 expr float(108)/float(70);
#X obj 308 493 expr float(67)/float(46);
#X obj 294 404 expr float(88)/float(64);
#X obj 280 313 expr float(96)/float(74);
#X obj 265 223 expr float(98)/float(80);
#X obj 251 133 expr float(74)/float(64);
#X obj 237 603 expr float(84)/float(77);
#X obj 223 513 expr float(103)/float(100);
#X obj 208 423 expr float(105)/float(108);
#X obj 194 333 expr float(67)/float(73);
#X obj 166 63 sel 0 1 2 3 4 5 6 7 8 9 10 11;
#X obj 166 755 outlet;
#X obj 166 42 inlet;
#X connect 0 0 13 0;
#X connect 1 0 13 0;
#X connect 2 0 13 0;
#X connect 3 0 13 0;
#X connect 4 0 13 0;
#X connect 5 0 13 0;
#X connect 6 0 13 0;
#X connect 7 0 13 0;
#X connect 8 0 13 0;
#X connect 9 0 13 0;
#X connect 10 0 13 0;
#X connect 11 0 13 0;
#X connect 12 0 0 0;
#X connect 12 1 1 0;
#X connect 12 2 11 0;
#X connect 12 3 10 0;
#X connect 12 4 9 0;
#X connect 12 5 8 0;
#X connect 12 6 7 0;
#X connect 12 7 6 0;
#X connect 12 8 5 0;
#X connect 12 9 4 0;
#X connect 12 10 3 0;
#X connect 12 11 2 0;
#X connect 14 0 12 0;
#X restore 365 359 pd ratio;
#X floatatom 188 373 5 0 0 0 - - -;
#X obj 516 274 moses 37;
#X obj 561 311 moses 42;
#X obj 606 346 moses 49;
#X obj 516 416 + 48;
#X obj 606 416 + 43;
#X obj 651 416 - 48;
#X obj 651 380 moses 85;
#X obj 696 416 - 43;
#X floatatom 516 466 5 0 0 0 - - -;
#X msg 561 416 0;
#X obj 269 538 s~ leak_\$1;
#X obj 516 513 r~;
#X obj 516 604 *~;
#X obj 548 513 r crosstalk;
#X msg 516 492 set leak_\$1;
#X obj 69 546 r~ leakage;
#X obj 516 564 *~;
#X obj 784 503 f;
#X obj 701 457 b;
#X obj 656 457 b;
#X obj 566 457 b;
#X obj 746 457 b;
#X obj 658 501 f;
#X obj 835 411 r lowtohigh;
#X obj 936 405 r hightolow;
#X connect 0 0 1 0;
#X connect 2 0 3 0;
#X connect 3 0 4 0;
#X connect 3 0 18 0;
#X connect 3 0 19 0;
#X connect 4 0 5 0;
#X connect 4 0 6 0;
#X connect 5 0 7 0;
#X connect 5 0 11 0;
#X connect 6 0 17 0;
#X connect 7 0 8 0;
#X connect 8 0 0 0;
#X connect 8 0 29 0;
#X connect 8 0 14 0;
#X connect 9 0 16 1;
#X connect 10 0 9 0;
#X connect 11 0 10 0;
#X connect 12 0 0 1;
#X connect 15 0 16 0;
#X connect 16 0 8 0;
#X connect 17 0 16 2;
#X connect 19 0 22 0;
#X connect 19 1 20 0;
#X connect 20 0 28 0;
#X connect 20 1 21 0;
#X connect 21 0 23 0;
#X connect 21 1 25 0;
#X connect 22 0 27 0;
#X connect 22 0 39 0;
#X connect 23 0 27 0;
#X connect 23 0 38 0;
#X connect 24 0 27 0;
#X connect 24 0 37 0;
#X connect 25 0 24 0;
#X connect 25 1 26 0;
#X connect 26 0 27 0;
#X connect 26 0 40 0;
#X connect 27 0 33 0;
#X connect 28 0 27 0;
#X connect 30 0 35 0;
#X connect 31 0 0 0;
#X connect 32 0 31 1;
#X connect 33 0 30 0;
#X connect 34 0 1 0;
#X connect 35 0 31 0;
#X connect 36 0 35 1;
#X connect 37 0 36 0;
#X connect 38 0 41 0;
#X connect 39 0 41 0;
#X connect 40 0 36 0;
#X connect 41 0 35 1;
#X connect 42 0 41 0;
#X connect 43 0 36 0;
