#N canvas 0 42 1532 1016 10;
#X obj 248 605 *~ 1;
#X obj 248 767 s~ note_\$1;
#X obj 293 239 loadbang;
#X obj 293 261 f \$1;
#X obj 293 282 - 1;
#X obj 293 303 div 12;
#X obj 365 333 mod 12;
#X msg 293 418 set oct\$1;
#X obj 248 448 tabosc4~;
#X obj 306 376 pow;
#X msg 306 355 2 \$1;
#X obj 306 334 + 1;
#X obj 269 584 r vol_tg\$1;
#X obj 194 22 inlet;
#X obj 258 626 throw~ leakagedsp;
#X obj 248 22 r motor_speed_flutter;
#X obj 248 397 expr $f1 * $f2 * $f3;
#N canvas 406 66 1484 845 ratio 0;
#X obj 166 153 expr float(85)/float(104);
#X obj 180 243 expr float(71)/float(82);
#X obj 322 583 expr float(108)/float(70);
#X obj 308 493 expr float(67)/float(46);
#X obj 294 404 expr float(88)/float(64);
#X obj 280 313 expr float(96)/float(74);
#X obj 265 223 expr float(98)/float(80);
#X obj 251 133 expr float(74)/float(64);
#X obj 237 603 expr float(84)/float(77);
#X obj 223 513 expr float(103)/float(100);
#X obj 208 423 expr float(105)/float(108);
#X obj 194 333 expr float(67)/float(73);
#X obj 166 63 sel 0 1 2 3 4 5 6 7 8 9 10 11;
#X obj 166 755 outlet;
#X obj 166 42 inlet;
#X connect 0 0 13 0;
#X connect 1 0 13 0;
#X connect 2 0 13 0;
#X connect 3 0 13 0;
#X connect 4 0 13 0;
#X connect 5 0 13 0;
#X connect 6 0 13 0;
#X connect 7 0 13 0;
#X connect 8 0 13 0;
#X connect 9 0 13 0;
#X connect 10 0 13 0;
#X connect 11 0 13 0;
#X connect 12 0 0 0;
#X connect 12 1 1 0;
#X connect 12 2 11 0;
#X connect 12 3 10 0;
#X connect 12 4 9 0;
#X connect 12 5 8 0;
#X connect 12 6 7 0;
#X connect 12 7 6 0;
#X connect 12 8 5 0;
#X connect 12 9 4 0;
#X connect 12 10 3 0;
#X connect 12 11 2 0;
#X connect 14 0 12 0;
#X restore 365 359 pd ratio;
#X obj 287 725 r bpq;
#X obj 277 663 r filterage;
#X obj 277 684 t b f;
#X obj 267 705 *;
#X floatatom 347 757 5 0 0 0 - - -;
#X obj 248 746 vcf~, f 7;
#X connect 0 0 14 0;
#X connect 0 0 23 0;
#X connect 2 0 3 0;
#X connect 3 0 4 0;
#X connect 4 0 5 0;
#X connect 4 0 6 0;
#X connect 5 0 7 0;
#X connect 5 0 11 0;
#X connect 6 0 17 0;
#X connect 7 0 8 0;
#X connect 8 0 0 0;
#X connect 9 0 16 1;
#X connect 10 0 9 0;
#X connect 11 0 10 0;
#X connect 12 0 0 1;
#X connect 15 0 16 0;
#X connect 16 0 8 0;
#X connect 16 0 21 0;
#X connect 17 0 16 2;
#X connect 18 0 23 2;
#X connect 19 0 20 0;
#X connect 20 0 21 0;
#X connect 20 1 21 1;
#X connect 21 0 22 0;
#X connect 21 0 23 1;
#X connect 23 0 1 0;
