#N canvas 586 23 1305 913 10;
#X obj 1001 394 block~ 1 1 1;
#X obj 523 190 inlet~;
#X obj 533 216 delwrite~ vibrato 10;
#X obj 592 460 delread4~ vibrato;
#X obj 592 501 outlet~;
#X obj 592 388 expr~ abs(2*$v1 - 1);
#X obj 592 367 phasor~ 7;
#X obj 592 439 *~ 1;
#X obj 523 350 *~;
#X obj 541 237 hsl 128 15 0 100 0 0 empty empty empty -2 -8 0 10 -262144
-1 -1 0 1;
#X obj 538 257 dbtorms;
#X floatatom 538 278 5 0 0 0 - - -;
#X obj 126 183 s \$0_dry_level;
#X obj 92 208 s \$0_wet_level;
#X obj 92 70 r \$0_scanner_mode;
#X obj 161 158 s \$0_total_delay_time;
#N canvas 1018 662 588 336 scanner_params 0;
#X obj 180 40 inlet mode;
#X obj 191 240 outlet params;
#X obj 180 85 sel 0 1 2 3 4 5 6;
#X msg 20 158 0 1 0;
#X msg 309 158 0.6 0.6 0.1;
#X msg 395 158 0.6 0.6 0.25;
#X msg 483 158 0.6 0.6 0.4;
#X msg 230 158 1 0.2 0.4;
#X msg 146 158 1 0.2 0.25;
#X msg 67 158 1 0.2 0.1;
#X connect 0 0 2 0;
#X connect 2 0 3 0;
#X connect 2 1 9 0;
#X connect 2 2 8 0;
#X connect 2 3 7 0;
#X connect 2 4 4 0;
#X connect 2 5 5 0;
#X connect 2 6 6 0;
#X connect 3 0 1 0;
#X connect 4 0 1 0;
#X connect 5 0 1 0;
#X connect 6 0 1 0;
#X connect 7 0 1 0;
#X connect 8 0 1 0;
#X connect 9 0 1 0;
#X restore 92 99 pd scanner_params;
#X obj 92 128 unpack f f f;
#X obj 592 409 +~ 5;
#X connect 1 0 2 0;
#X connect 1 0 8 0;
#X connect 3 0 4 0;
#X connect 5 0 18 0;
#X connect 6 0 5 0;
#X connect 7 0 3 0;
#X connect 8 0 4 0;
#X connect 9 0 10 0;
#X connect 10 0 11 0;
#X connect 11 0 8 1;
#X connect 14 0 16 0;
#X connect 16 0 17 0;
#X connect 17 0 13 0;
#X connect 17 1 12 0;
#X connect 17 2 15 0;
#X connect 18 0 7 0;
